<svg xmlns="http://www.w3.org/2000/svg" viewBox="0 0 1024 1024" role="img" aria-label="L4D2 Server Hub launcher icon">
  <defs>
    <linearGradient id="bg" x1="164" y1="108" x2="864" y2="924" gradientUnits="userSpaceOnUse">
      <stop offset="0" stop-color="#1e2928"/>
      <stop offset="0.55" stop-color="#101716"/>
      <stop offset="1" stop-color="#080c0b"/>
    </linearGradient>
    <linearGradient id="rack" x1="276" y1="204" x2="704" y2="800" gradientUnits="userSpaceOnUse">
      <stop offset="0" stop-color="#f3f5e7"/>
      <stop offset="1" stop-color="#9fa996"/>
    </linearGradient>
    <linearGradient id="rackFace" x1="292" y1="244" x2="698" y2="740" gradientUnits="userSpaceOnUse">
      <stop offset="0" stop-color="#253230"/>
      <stop offset="1" stop-color="#121918"/>
    </linearGradient>
    <linearGradient id="launch" x1="504" y1="386" x2="796" y2="690" gradientUnits="userSpaceOnUse">
      <stop offset="0" stop-color="#b7ff66"/>
      <stop offset="0.52" stop-color="#43e06f"/>
      <stop offset="1" stop-color="#0e8c58"/>
    </linearGradient>
    <filter id="shadow" x="-20%" y="-20%" width="140%" height="150%">
      <feDropShadow dx="0" dy="28" stdDeviation="30" flood-color="#000000" flood-opacity="0.45"/>
    </filter>
    <filter id="softShadow" x="-30%" y="-30%" width="160%" height="160%">
      <feDropShadow dx="0" dy="14" stdDeviation="14" flood-color="#000000" flood-opacity="0.38"/>
    </filter>
  </defs>

  <rect width="1024" height="1024" rx="224" fill="url(#bg)"/>
  <rect x="58" y="58" width="908" height="908" rx="182" fill="none" stroke="#ffffff" stroke-opacity="0.08" stroke-width="18"/>
  <path d="M236 808c142 68 354 72 532 10" fill="none" stroke="#63ee82" stroke-linecap="round" stroke-width="22" stroke-opacity="0.22"/>

  <g filter="url(#shadow)">
    <rect x="248" y="188" width="466" height="648" rx="86" fill="url(#rack)" stroke="#050908" stroke-width="26"/>
    <rect x="300" y="246" width="362" height="532" rx="44" fill="url(#rackFace)"/>

    <rect x="348" y="306" width="266" height="88" rx="22" fill="#d7ddc8" opacity="0.96"/>
    <rect x="348" y="468" width="266" height="88" rx="22" fill="#d7ddc8" opacity="0.96"/>
    <rect x="348" y="630" width="266" height="88" rx="22" fill="#d7ddc8" opacity="0.96"/>

    <circle cx="392" cy="350" r="16" fill="#101716"/>
    <circle cx="392" cy="512" r="16" fill="#101716"/>
    <circle cx="392" cy="674" r="16" fill="#101716"/>
    <path d="M444 350h112M444 512h112M444 674h112" stroke="#101716" stroke-linecap="round" stroke-width="20" opacity="0.9"/>

    <path d="M306 254c34-34 78-52 132-52h138" fill="none" stroke="#ffffff" stroke-linecap="round" stroke-width="22" stroke-opacity="0.18"/>
  </g>

  <g filter="url(#softShadow)">
    <circle cx="662" cy="594" r="178" fill="#09100e" stroke="#050908" stroke-width="24"/>
    <circle cx="662" cy="594" r="140" fill="url(#launch)"/>
    <path d="M590 522c0-22 24-36 43-24l112 68c20 12 20 42 0 54l-112 70c-19 12-43-2-43-24V522Z" fill="#f8ffe9"/>
  </g>

  <g fill="none" stroke-linecap="round" stroke-linejoin="round">
    <path d="M242 548h-62c-34 0-62 28-62 62v46" stroke="#6bf187" stroke-width="28" stroke-opacity="0.78"/>
    <path d="M242 676h-82" stroke="#6bf187" stroke-width="28" stroke-opacity="0.62"/>
    <path d="M242 420h-46c-34 0-62-28-62-62v-36" stroke="#6bf187" stroke-width="28" stroke-opacity="0.62"/>
    <circle cx="118" cy="692" r="30" fill="#d9ffe4" stroke="#07100d" stroke-width="16"/>
    <circle cx="134" cy="286" r="30" fill="#d9ffe4" stroke="#07100d" stroke-width="16"/>
  </g>
</svg>
